{
    "asset" : {
        "generator" : "Khronos glTF Blender I/O v1.5.17",
        "version" : "2.0"
    },
    "scene" : 0,
    "scenes" : [
        {
            "name" : "Scene",
            "nodes" : [
                0,
                1,
                2
            ]
        }
    ],
    "nodes" : [
        {
            "mesh" : 0,
            "name" : "FoodCloche",
            "translation" : [
                2,
                0,
                0.4000000059604645
            ]
        },
        {
            "mesh" : 1,
            "name" : "TableCloth",
            "translation" : [
                0.4000000059604645,
                0,
                0.4000000059604645
            ]
        },
        {
            "mesh" : 2,
            "name" : "Menu",
            "translation" : [
                1.2000000476837158,
                0,
                0.4000000059604645
            ]
        }
    ],
    "materials" : [
        {
            "doubleSided" : true,
            "name" : "FoodCloche",
            "pbrMetallicRoughness" : {
                "baseColorTexture" : {
                    "index" : 0
                },
                "metallicFactor" : 0,
                "roughnessFactor" : 0.25
            }
        },
        {
            "doubleSided" : true,
            "name" : "TableCloth",
            "pbrMetallicRoughness" : {
                "baseColorTexture" : {
                    "index" : 1
                },
                "metallicFactor" : 0,
                "roughnessFactor" : 0.5
            }
        },
        {
            "doubleSided" : true,
            "name" : "Menu",
            "pbrMetallicRoughness" : {
                "baseColorTexture" : {
                    "index" : 2
                },
                "metallicFactor" : 0,
                "roughnessFactor" : 0.5
            }
        },
        {
            "alphaMode" : "BLEND",
            "doubleSided" : true,
            "name" : "MenuDesign",
            "pbrMetallicRoughness" : {
                "baseColorTexture" : {
                    "index" : 3
                },
                "metallicFactor" : 0,
                "roughnessFactor" : 0.5
            }
        }
    ],
    "meshes" : [
        {
            "name" : "Sphere",
            "primitives" : [
                {
                    "attributes" : {
                        "POSITION" : 0,
                        "NORMAL" : 1,
                        "TEXCOORD_0" : 2
                    },
                    "indices" : 3,
                    "material" : 0
                }
            ]
        },
        {
            "name" : "Plane",
            "primitives" : [
                {
                    "attributes" : {
                        "POSITION" : 4,
                        "NORMAL" : 5,
                        "TEXCOORD_0" : 6
                    },
                    "indices" : 7,
                    "material" : 1
                }
            ]
        },
        {
            "name" : "Cube",
            "primitives" : [
                {
                    "attributes" : {
                        "POSITION" : 8,
                        "NORMAL" : 9,
                        "TEXCOORD_0" : 10
                    },
                    "indices" : 11,
                    "material" : 2
                },
                {
                    "attributes" : {
                        "POSITION" : 12,
                        "NORMAL" : 13,
                        "TEXCOORD_0" : 14
                    },
                    "indices" : 15,
                    "material" : 3
                }
            ]
        }
    ],
    "textures" : [
        {
            "sampler" : 0,
            "source" : 0
        },
        {
            "sampler" : 0,
            "source" : 1
        },
        {
            "sampler" : 0,
            "source" : 2
        },
        {
            "sampler" : 0,
            "source" : 2
        }
    ],
    "images" : [
        {
            "mimeType" : "image/png",
            "name" : "FoodCloche",
            "uri" : "FoodCloche.png"
        },
        {
            "mimeType" : "image/png",
            "name" : "TableCloth",
            "uri" : "TableCloth.png"
        },
        {
            "mimeType" : "image/png",
            "name" : "Menu",
            "uri" : "Menu.png"
        }
    ],
    "accessors" : [
        {
            "bufferView" : 0,
            "componentType" : 5126,
            "count" : 88,
            "max" : [
                0.12999999523162842,
                0.11000000685453415,
                0.12999999523162842
            ],
            "min" : [
                -0.12999999523162842,
                -0.004999999888241291,
                -0.12999999523162842
            ],
            "type" : "VEC3"
        },
        {
            "bufferView" : 1,
            "componentType" : 5126,
            "count" : 88,
            "type" : "VEC3"
        },
        {
            "bufferView" : 2,
            "componentType" : 5126,
            "count" : 88,
            "type" : "VEC2"
        },
        {
            "bufferView" : 3,
            "componentType" : 5123,
            "count" : 330,
            "type" : "SCALAR"
        },
        {
            "bufferView" : 4,
            "componentType" : 5126,
            "count" : 36,
            "max" : [
                0.05219562351703644,
                0.06646730750799179,
                0.10134873539209366
            ],
            "min" : [
                -0.09048785269260406,
                -0.27268701791763306,
                -0.07576364278793335
            ],
            "type" : "VEC3"
        },
        {
            "bufferView" : 5,
            "componentType" : 5126,
            "count" : 36,
            "type" : "VEC3"
        },
        {
            "bufferView" : 6,
            "componentType" : 5126,
            "count" : 36,
            "type" : "VEC2"
        },
        {
            "bufferView" : 7,
            "componentType" : 5123,
            "count" : 150,
            "type" : "SCALAR"
        },
        {
            "bufferView" : 8,
            "componentType" : 5126,
            "count" : 28,
            "max" : [
                0.11500000953674316,
                0.03500000014901161,
                0.15850000083446503
            ],
            "min" : [
                -0.12000000476837158,
                0.004999999888241291,
                -0.15850000083446503
            ],
            "type" : "VEC3"
        },
        {
            "bufferView" : 9,
            "componentType" : 5126,
            "count" : 28,
            "type" : "VEC3"
        },
        {
            "bufferView" : 10,
            "componentType" : 5126,
            "count" : 28,
            "type" : "VEC2"
        },
        {
            "bufferView" : 11,
            "componentType" : 5123,
            "count" : 42,
            "type" : "SCALAR"
        },
        {
            "bufferView" : 12,
            "componentType" : 5126,
            "count" : 40,
            "max" : [
                0.12000000476837158,
                0.03717391937971115,
                0.16349999606609344
            ],
            "min" : [
                -0.05000000074505806,
                -9.313225746154785e-10,
                -0.16349999606609344
            ],
            "type" : "VEC3"
        },
        {
            "bufferView" : 13,
            "componentType" : 5126,
            "count" : 40,
            "type" : "VEC3"
        },
        {
            "bufferView" : 14,
            "componentType" : 5126,
            "count" : 40,
            "type" : "VEC2"
        },
        {
            "bufferView" : 15,
            "componentType" : 5123,
            "count" : 84,
            "type" : "SCALAR"
        }
    ],
    "bufferViews" : [
        {
            "buffer" : 0,
            "byteLength" : 1056,
            "byteOffset" : 0
        },
        {
            "buffer" : 0,
            "byteLength" : 1056,
            "byteOffset" : 1056
        },
        {
            "buffer" : 0,
            "byteLength" : 704,
            "byteOffset" : 2112
        },
        {
            "buffer" : 0,
            "byteLength" : 660,
            "byteOffset" : 2816
        },
        {
            "buffer" : 0,
            "byteLength" : 432,
            "byteOffset" : 3476
        },
        {
            "buffer" : 0,
            "byteLength" : 432,
            "byteOffset" : 3908
        },
        {
            "buffer" : 0,
            "byteLength" : 288,
            "byteOffset" : 4340
        },
        {
            "buffer" : 0,
            "byteLength" : 300,
            "byteOffset" : 4628
        },
        {
            "buffer" : 0,
            "byteLength" : 336,
            "byteOffset" : 4928
        },
        {
            "buffer" : 0,
            "byteLength" : 336,
            "byteOffset" : 5264
        },
        {
            "buffer" : 0,
            "byteLength" : 224,
            "byteOffset" : 5600
        },
        {
            "buffer" : 0,
            "byteLength" : 84,
            "byteOffset" : 5824
        },
        {
            "buffer" : 0,
            "byteLength" : 480,
            "byteOffset" : 5908
        },
        {
            "buffer" : 0,
            "byteLength" : 480,
            "byteOffset" : 6388
        },
        {
            "buffer" : 0,
            "byteLength" : 320,
            "byteOffset" : 6868
        },
        {
            "buffer" : 0,
            "byteLength" : 168,
            "byteOffset" : 7188
        }
    ],
    "samplers" : [
        {
            "magFilter" : 9729,
            "minFilter" : 9987
        }
    ],
    "buffers" : [
        {
            "byteLength" : 7356,
            "uri" : "Serveware.bin"
        }
    ]
}
