<?xml version="1.0" encoding="UTF-8" standalone="no"?>
<svg
   xmlns:dc="http://purl.org/dc/elements/1.1/"
   xmlns:cc="http://creativecommons.org/ns#"
   xmlns:rdf="http://www.w3.org/1999/02/22-rdf-syntax-ns#"
   xmlns:svg="http://www.w3.org/2000/svg"
   xmlns="http://www.w3.org/2000/svg"
   xmlns:xlink="http://www.w3.org/1999/xlink"
   xmlns:sodipodi="http://sodipodi.sourceforge.net/DTD/sodipodi-0.dtd"
   xmlns:inkscape="http://www.inkscape.org/namespaces/inkscape"
   width="32"
   height="32"
   viewBox="0 0 32 32"
   version="1.1"
   id="svg8"
   inkscape:version="1.0.2 (e86c8708, 2021-01-15)"
   sodipodi:docname="Flame.svg">
  <defs
     id="defs2">
    <linearGradient
       inkscape:collect="always"
       id="linearGradient1382">
      <stop
         style="stop-color:#ffffff;stop-opacity:1"
         offset="0"
         id="stop1378" />
      <stop
         style="stop-color:#ffffff;stop-opacity:1"
         offset="1"
         id="stop1380" />
    </linearGradient>
    <linearGradient
       inkscape:collect="always"
       id="linearGradient1104">
      <stop
         style="stop-color:#cc4400;stop-opacity:1;"
         offset="0"
         id="stop1100" />
      <stop
         style="stop-color:#cc4400;stop-opacity:0;"
         offset="1"
         id="stop1102" />
    </linearGradient>
    <linearGradient
       inkscape:collect="always"
       id="linearGradient1094">
      <stop
         style="stop-color:#f58a3d;stop-opacity:1;"
         offset="0"
         id="stop1090" />
      <stop
         style="stop-color:#f58a3d;stop-opacity:0;"
         offset="1"
         id="stop1092" />
    </linearGradient>
    <filter
       inkscape:collect="always"
       style="color-interpolation-filters:sRGB"
       id="filter1044"
       x="-0.39807831"
       width="1.7961566"
       y="-0.24069717"
       height="1.4813943">
      <feGaussianBlur
         inkscape:collect="always"
         stdDeviation="1.6803048"
         id="feGaussianBlur1046" />
    </filter>
    <filter
       inkscape:collect="always"
       style="color-interpolation-filters:sRGB"
       id="filter1078"
       x="-0.3"
       width="1.6"
       y="-0.3"
       height="1.6">
      <feGaussianBlur
         inkscape:collect="always"
         stdDeviation="0.75406283"
         id="feGaussianBlur1080" />
    </filter>
    <radialGradient
       inkscape:collect="always"
       xlink:href="#linearGradient1094"
       id="radialGradient1098"
       cx="16"
       cy="21.488007"
       fx="16"
       fy="21.488007"
       r="5.065249"
       gradientTransform="matrix(1.5886347,0,0,2.4191661,-9.4181553,-28.962473)"
       gradientUnits="userSpaceOnUse" />
    <radialGradient
       inkscape:collect="always"
       xlink:href="#linearGradient1104"
       id="radialGradient1106"
       cx="16"
       cy="20.506632"
       fx="16"
       fy="20.506632"
       r="8.2824282"
       gradientTransform="matrix(1.4353357,0,0,2.7382628,-6.9653704,-33.131962)"
       gradientUnits="userSpaceOnUse" />
    <filter
       inkscape:collect="always"
       style="color-interpolation-filters:sRGB"
       id="filter1138"
       x="-0.13812305"
       width="1.2762461"
       y="-0.088663509"
       height="1.177327">
      <feGaussianBlur
         inkscape:collect="always"
         stdDeviation="0.95332852"
         id="feGaussianBlur1140" />
    </filter>
    <radialGradient
       inkscape:collect="always"
       xlink:href="#linearGradient1382"
       id="radialGradient1106-7"
       cx="16"
       cy="20.506632"
       fx="16"
       fy="20.506632"
       r="8.2824278"
       gradientTransform="matrix(1.4353357,0,0,2.7382628,-6.9653691,-33.131962)"
       gradientUnits="userSpaceOnUse" />
    <filter
       inkscape:collect="always"
       style="color-interpolation-filters:sRGB"
       id="filter1386"
       x="-0.13812305"
       width="1.2762461"
       y="-0.088663509"
       height="1.177327">
      <feGaussianBlur
         inkscape:collect="always"
         stdDeviation="0.95332853"
         id="feGaussianBlur1388" />
    </filter>
  </defs>
  <sodipodi:namedview
     id="base"
     pagecolor="#ffffff"
     bordercolor="#666666"
     borderopacity="1.0"
     inkscape:pageopacity="0.0"
     inkscape:pageshadow="2"
     inkscape:zoom="1.2102351"
     inkscape:cx="16"
     inkscape:cy="16"
     inkscape:document-units="px"
     inkscape:current-layer="layer2"
     inkscape:document-rotation="0"
     showgrid="false"
     units="px"
     inkscape:showpageshadow="false"
     inkscape:snap-center="true" />
  <metadata
     id="metadata5">
    <rdf:RDF>
      <cc:Work
         rdf:about="">
        <dc:format>image/svg+xml</dc:format>
        <dc:type
           rdf:resource="http://purl.org/dc/dcmitype/StillImage" />
        <dc:title />
      </cc:Work>
    </rdf:RDF>
  </metadata>
  <g
     inkscape:label="Layer 1"
     inkscape:groupmode="layer"
     id="layer1">
    <rect
       style="fill:#cc4400"
       id="rect833"
       width="32"
       height="32"
       x="0"
       y="0" />
    <path
       id="path1108"
       style="fill:url(#radialGradient1106);filter:url(#filter1138)"
       d="M 7.7224618,18.971257 C 7.6434769,16.001954 8.5261132,12.888321 10.02187,10.089592 11.517626,7.2908629 13.626503,4.8070376 16,3.0973499 c 2.373497,1.7096877 4.482374,4.193513 5.97813,6.9922421 1.495757,2.798729 2.378393,5.912362 2.299408,8.881665 -0.06759,2.540898 -0.902851,5.023747 -2.338278,6.87137 C 20.503834,27.690251 18.468244,28.90265 16,28.90265 c -2.468244,0 -4.503834,-1.212399 -5.93926,-3.060023 -1.4354265,-1.847623 -2.2706891,-4.330472 -2.3382782,-6.87137 z"
       sodipodi:nodetypes="sscssscss" />
    <path
       id="path837"
       style="fill:url(#radialGradient1106)"
       d="M 7.7224618,18.971257 C 7.6434769,16.001954 8.5261132,12.888321 10.02187,10.089592 11.517626,7.2908629 13.626503,4.8070376 16,3.0973499 c 2.373497,1.7096877 4.482374,4.193513 5.97813,6.9922421 1.495757,2.798729 2.378393,5.912362 2.299408,8.881665 -0.06759,2.540898 -0.902851,5.023747 -2.338278,6.87137 C 20.503834,27.690251 18.468244,28.90265 16,28.90265 c -2.468244,0 -4.503834,-1.212399 -5.93926,-3.060023 -1.4354265,-1.847623 -2.2706891,-4.330472 -2.3382782,-6.87137 z"
       sodipodi:nodetypes="sscssscss" />
    <path
       id="path840"
       style="fill:url(#radialGradient1098)"
       d="m 10.937742,21.073217 c -0.04831,-1.927853 0.491485,-3.949414 1.406239,-5.76652 C 13.258734,13.48959 14.548451,11.87694 16,10.766906 c 1.451549,1.110034 2.741266,2.722684 3.656019,4.539791 0.914754,1.817106 1.454544,3.838667 1.406239,5.76652 -0.04133,1.649707 -0.552152,3.261724 -1.430011,4.461314 -0.877857,1.19959 -2.122753,1.986754 -3.632247,1.986754 -1.509494,0 -2.75439,-0.787164 -3.632247,-1.986754 -0.877858,-1.19959 -1.388676,-2.811607 -1.430011,-4.461314 z"
       sodipodi:nodetypes="sscssscss" />
    <circle
       style="fill:#f2e5a6"
       id="path842"
       cx="16"
       cy="23.020584"
       r="3.0162513" />
    <use
       x="0"
       y="0"
       xlink:href="#path840"
       id="use1022"
       style="filter:url(#filter1044)"
       width="100%"
       height="100%" />
    <use
       x="0"
       y="0"
       xlink:href="#path842"
       id="use1048"
       style="filter:url(#filter1078)"
       width="100%"
       height="100%" />
  </g>
  <g
     inkscape:groupmode="layer"
     inkscape:label="Layer 2"
     id="layer2"
     style="display:none">
    <rect
       style="fill:#000000"
       id="rect833-5"
       width="32"
       height="32"
       x="0"
       y="0" />
    <use
       x="0"
       y="0"
       xlink:href="#path837-5"
       id="use1384"
       style="filter:url(#filter1386)"
       width="100%"
       height="100%" />
    <path
       id="path837-5"
       style="fill:url(#radialGradient1106-7)"
       d="m 7.7224629,18.971257 c -0.07899,-2.969303 0.803651,-6.082936 2.2994081,-8.881665 1.495756,-2.7987291 3.604633,-5.2825541 5.97813,-6.9922421 2.373497,1.709688 4.482374,4.193513 5.97813,6.9922421 1.495757,2.798729 2.378393,5.912362 2.299408,8.881665 -0.06759,2.540898 -0.902851,5.023747 -2.338278,6.87137 -1.435426,1.847624 -3.471016,3.060023 -5.93926,3.060023 -2.468244,0 -4.503834,-1.212399 -5.93926,-3.060023 -1.4354271,-1.847623 -2.2706891,-4.330472 -2.3382781,-6.87137 z"
       sodipodi:nodetypes="sscssscss" />
  </g>
</svg>
