<?xml version="1.0" encoding="UTF-8" standalone="no"?>
<!-- Created with Inkscape (http://www.inkscape.org/) -->

<svg
   width="128"
   height="128"
   viewBox="0 0 128 128"
   version="1.1"
   id="svg124"
   sodipodi:docname="Menu.svg"
   inkscape:version="1.1 (c4e8f9e, 2021-05-24)"
   xmlns:inkscape="http://www.inkscape.org/namespaces/inkscape"
   xmlns:sodipodi="http://sodipodi.sourceforge.net/DTD/sodipodi-0.dtd"
   xmlns:xlink="http://www.w3.org/1999/xlink"
   xmlns="http://www.w3.org/2000/svg"
   xmlns:svg="http://www.w3.org/2000/svg">
  <sodipodi:namedview
     id="namedview126"
     pagecolor="#ffffff"
     bordercolor="#666666"
     borderopacity="1.0"
     inkscape:pageshadow="2"
     inkscape:pageopacity="0.0"
     inkscape:pagecheckerboard="0"
     inkscape:document-units="px"
     showgrid="false"
     units="px"
     width="128px"
     inkscape:zoom="1"
     inkscape:cx="63.5"
     inkscape:cy="63.5"
     inkscape:current-layer="g40351"
     inkscape:snap-smooth-nodes="true"
     inkscape:lockguides="false"
     showguides="true"
     inkscape:guide-bbox="true">
    <inkscape:grid
       type="xygrid"
       id="grid4383"
       empspacing="4" />
  </sodipodi:namedview>
  <defs
     id="defs121">
    <linearGradient
       inkscape:collect="always"
       id="linearGradient38179">
      <stop
         style="stop-color:#ff3333;stop-opacity:1"
         offset="0"
         id="stop38175" />
      <stop
         style="stop-color:#ffbf00;stop-opacity:1"
         offset="0.60000074"
         id="stop38941" />
      <stop
         style="stop-color:#ffd500;stop-opacity:1"
         offset="1"
         id="stop38177" />
    </linearGradient>
    <linearGradient
       inkscape:collect="always"
       id="linearGradient34922">
      <stop
         style="stop-color:#fff699;stop-opacity:1;"
         offset="0"
         id="stop34918" />
      <stop
         style="stop-color:#fff699;stop-opacity:0;"
         offset="1"
         id="stop34920" />
    </linearGradient>
    <linearGradient
       inkscape:collect="always"
       id="linearGradient31224">
      <stop
         style="stop-color:#fff699;stop-opacity:1"
         offset="0"
         id="stop31220" />
      <stop
         style="stop-color:#ff5500;stop-opacity:1"
         offset="1"
         id="stop31222" />
    </linearGradient>
    <linearGradient
       inkscape:collect="always"
       xlink:href="#linearGradient31224"
       id="linearGradient31232"
       x1="128"
       y1="0"
       x2="64"
       y2="64"
       gradientUnits="userSpaceOnUse" />
    <linearGradient
       inkscape:collect="always"
       xlink:href="#linearGradient34922"
       id="linearGradient34947"
       x1="63"
       y1="10.280622"
       x2="121"
       y2="10.280622"
       gradientUnits="userSpaceOnUse" />
    <clipPath
       clipPathUnits="userSpaceOnUse"
       id="clipPath37693">
      <use
         x="0"
         y="0"
         xlink:href="#path28360"
         id="use37695"
         width="100%"
         height="100%" />
    </clipPath>
    <radialGradient
       inkscape:collect="always"
       xlink:href="#linearGradient38179"
       id="radialGradient38347"
       cx="115.00003"
       cy="12.999998"
       fx="115.00003"
       fy="12.999998"
       r="32"
       gradientUnits="userSpaceOnUse"
       gradientTransform="matrix(0.15625021,0.15625003,-0.37500002,0.37500004,101.90621,-9.8437581)" />
  </defs>
  <g
     inkscape:label="Layer 1"
     inkscape:groupmode="layer"
     id="layer1">
    <g
       id="g26409">
      <rect
         style="fill:none"
         id="rect26303"
         width="64"
         height="64"
         x="0"
         y="0" />
      <rect
         style="fill:#704884"
         id="rect440"
         width="30"
         height="30"
         x="1"
         y="1" />
      <rect
         style="fill:#f3f2f1"
         id="rect1911"
         width="30"
         height="30"
         x="33"
         y="33" />
    </g>
    <g
       id="g40306"
       transform="matrix(0.96875198,0,0,0.96875198,2.9998098,0.9999366)">
      <g
         id="g40324">
        <rect
           style="fill:none"
           id="rect24886"
           width="64"
           height="21.333334"
           x="64"
           y="0" />
        <rect
           style="fill:none"
           id="rect25207"
           width="21.333"
           height="64"
           x="106.667"
           y="0" />
      </g>
      <g
         id="g40320">
        <path
           id="path28360"
           style="fill:url(#radialGradient38347)"
           d="m 112,17 c -4,2 -4.6077,5 -3,11 -0.80385,3 1,8 5,8 -4,0 -8.07055,8.272594 -6,16 0,4 4,12 16,12 4,0 4,-2 4,-4 V 4 c 0,-2 -2,-4 -4,-4 H 68 c -2,0 -4,0 -4,4 0,12 8,16 12,16 7.727406,2.070552 16,-2 16,-6 0,4 5,5.803848 8,5 6,1.607695 9,0.999998 11,-3 2.50001,-5 7,-10 9,-8 2,2 -3,6.49999 -8,9 z"
           sodipodi:nodetypes="scccsscssscccszs" />
        <g
           id="g37687"
           clip-path="url(#clipPath37693)">
          <path
             id="path29026"
             style="fill:none;stroke:url(#linearGradient31232);stroke-width:2.06451;stroke-linecap:round;stroke-linejoin:round;paint-order:stroke fill markers"
             d="m 112,17 c -4,2 -4.6077,5 -3,11 -0.80385,3 1,8 5,8 -4,0 -8.07055,8.272594 -6,16 0,4 4,12 16,12 4,0 4,-2 4,-4 V 4 c 0,-2 -2,-4 -4,-4 H 68 c -2,0 -4,0 -4,4 0,12 8,16 12,16 7.727406,2.070552 16,-2 16,-6 0,4 5,5.803848 8,5 6,1.607695 9,0.999998 11,-3 2.50001,-5 7,-10 9,-8 2,2 -3,6.49999 -8,9 z"
             sodipodi:nodetypes="scccsscssscccszs"
             clip-path="none" />
          <path
             id="path34569"
             style="fill:none;stroke:url(#linearGradient34947);stroke-width:2.06451;stroke-linecap:round;stroke-linejoin:round;paint-order:stroke fill markers"
             d="m 64,2 c 0,12 8,16 12,16 7.727406,2.070552 16,-2 16,-6 0,4 5,5.803848 8,5 6,1.607695 9,0.999998 11,-3 2.50001,-5 7,-10 9,-8"
             sodipodi:nodetypes="ccccsc"
             clip-path="none" />
          <use
             x="0"
             y="0"
             xlink:href="#path34569"
             id="use35858"
             transform="matrix(0,-1,-1,0,128,128)"
             width="100%"
             height="100%" />
        </g>
      </g>
    </g>
    <g
       id="g25832">
      <rect
         style="fill:none"
         id="rect25503"
         width="64"
         height="64"
         x="0"
         y="64" />
      <g
         id="g40328">
        <path
           id="head"
           d="M 26.407251,83.282004 A 25.43595,25.43595 0 0 0 0.99993639,108.71795 H 26.435886 38.180279 A 11.128228,11.128228 0 0 1 49.308162,97.589725 25.43595,25.43595 0 0 0 26.435886,83.282004 a 25.43595,25.43595 0 0 0 -0.02864,0 z m 3.808078,9.538481 a 3.1794937,3.1794937 0 0 1 0.01622,0 3.1794937,3.1794937 0 0 1 3.179493,3.179493 3.1794937,3.1794937 0 0 1 -3.179493,3.179494 3.1794937,3.1794937 0 0 1 -3.179494,-3.179494 3.1794937,3.1794937 0 0 1 3.163278,-3.179493 z"
           style="fill:#6699cc" />
        <path
           id="beak"
           sodipodi:type="arc"
           sodipodi:cx="51.871838"
           sodipodi:cy="108.718"
           sodipodi:rx="11.128228"
           sodipodi:ry="11.128228"
           sodipodi:start="3.1415927"
           sodipodi:end="0"
           sodipodi:arc-type="slice"
           style="fill:#f5c83d"
           d="M 40.743609,108.718 A 11.128228,11.128228 0 0 1 51.871838,97.589774 11.128228,11.128228 0 0 1 63.000066,108.718 H 51.871838 Z" />
      </g>
    </g>
    <g
       id="g26095">
      <rect
         style="fill:none"
         id="rect25878"
         width="64"
         height="64"
         x="64"
         y="64" />
      <g
         id="g40351">
        <path
           style="fill:none;stroke:#f5c83d;stroke-width:2;stroke-linecap:round;stroke-linejoin:round;paint-order:stroke fill markers"
           d="M 80,103 C 80,98 78.5,92.598076 77,90 l -3,4 -4,-5 c -2.3401,2.3401 -4,8 -4,14 m 4,-8 1,1"
           id="path4418"
           sodipodi:nodetypes="ccccccc" />
        <path
           id="path20723"
           style="fill:none;stroke:#f5c83d;stroke-width:2;stroke-linecap:round;stroke-linejoin:round;paint-order:stroke fill markers"
           d="m 93.5,98 3,3 c -0.421961,0.73086 -3,2 -5,2 -5,0 -7,-3 -7,-7 0,-4 2,-7 7,-7 2,0 4.578039,1.269141 5,2 l -3,3 4,2 z"
           sodipodi:nodetypes="ccszscccc" />
        <path
           style="fill:none;stroke:#f5c83d;stroke-width:2;stroke-linecap:round;stroke-linejoin:round;paint-order:stroke fill markers"
           d="m 102,103 v -7 l 8,7 c 1,-8 -1,-12.392305 -7,-14"
           id="path22041"
           sodipodi:nodetypes="cccc" />
        <path
           id="path22896"
           style="fill:none;stroke:#f5c83d;stroke-width:2;stroke-linecap:round;stroke-linejoin:round;paint-order:stroke fill markers"
           d="m 115,89 v 8.5 c 0,3.03757 2.46243,5.5 5.5,5.5 3.03757,0 5.5,-2.46243 5.5,-5.5 V 89"
           sodipodi:nodetypes="csc" />
      </g>
    </g>
  </g>
</svg>
